HIERARCHY
ROOT Hips
{
	OFFSET 0.000000 0.000000 0.000000
	CHANNELS 6 Xposition Yposition Zposition Zrotation Yrotation Xrotation 
	JOINT LHipJoint
	{
		OFFSET 0.000000 0.000000 0.000000
		CHANNELS 3 Zrotation Yrotation Xrotation
		JOINT LeftUpLeg
		{
			OFFSET 1.363060 -1.794630 0.839290
			CHANNELS 3 Zrotation Yrotation Xrotation
			JOINT LeftLeg
			{
				OFFSET 2.448110 -6.726130 0.000000
				CHANNELS 3 Zrotation Yrotation Xrotation
				JOINT LeftFoot
				{
					OFFSET 2.562200 -7.039590 0.000000
					CHANNELS 3 Zrotation Yrotation Xrotation
					JOINT LeftToeBase
					{
						OFFSET 0.157640 -0.433110 2.322550
						CHANNELS 3 Zrotation Yrotation Xrotation
						End Site
						{
							OFFSET 0.000000 0.000000 0.000000
						}
					}
				}
			}
		}
	}
	JOINT RHipJoint
	{
		OFFSET 0.000000 0.000000 0.000000
		CHANNELS 3 Zrotation Yrotation Xrotation
		JOINT RightUpLeg
		{
			OFFSET -1.305520 -1.794630 0.839290
			CHANNELS 3 Zrotation Yrotation Xrotation
			JOINT RightLeg
			{
				OFFSET -2.542530 -6.985550 0.000000
				CHANNELS 3 Zrotation Yrotation Xrotation
				JOINT RightFoot
				{
					OFFSET -2.568260 -7.056230 0.000000
					CHANNELS 3 Zrotation Yrotation Xrotation
					JOINT RightToeBase
					{
						OFFSET -0.164730 -0.452590 2.363150
						CHANNELS 3 Zrotation Yrotation Xrotation
						End Site
						{
							OFFSET 0.000000 0.000000 0.000000
						}
					}
				}
			}
		}
	}
}
MOTION
Frames: 13
Frame Time: 0.008333
13.728085 16.923781 1.216293 13.731287 -89.442824 16.016535 -8.975274 -0.065050 4.782321 -1.681084 -18.559183 -37.255794 -0.769052 -0.499375 23.702598 3.780185 14.846063 -20.883785 -3.276400 0.000000 -32.972400 7.659559 0.260294 3.697963 4.794798 15.016721 -35.345732 1.479400 0.272657 24.139488 -3.813517 -10.301710 -22.325470 2.494700 0.000000 -52.920300
13.701541 16.853403 1.215750 17.405352 -89.450642 13.094214 -8.842930 -0.110132 4.803819 -1.594601 -18.872136 -39.089256 -0.737226 -0.379620 25.912305 3.916983 15.096678 -21.904118 -3.600600 -0.000000 -32.487300 7.729821 0.383760 3.824365 4.315183 15.634869 -37.501107 1.340949 0.020872 27.036642 -3.937890 -10.437245 -23.550269 2.787500 0.000000 -52.027200
13.675517 16.773355 1.214214 21.701146 -89.407006 9.539117 -8.703697 -0.158951 4.815624 -1.550078 -19.171740 -40.993768 -0.709361 -0.246117 28.301784 4.050516 15.299858 -23.020869 -3.953800 0.000000 -31.898400 7.822554 0.516638 3.934640 3.821076 16.150666 -39.699051 1.202949 -0.242879 30.043833 -4.042891 -10.525449 -24.786436 3.076899 -0.000000 -51.082300
13.650271 16.683112 1.211898 26.309809 -89.303183 5.659915 -8.568506 -0.216841 4.820394 -1.541102 -19.473471 -42.966307 -0.681773 -0.098135 30.861642 4.180676 15.465705 -24.220759 -4.332700 -0.000000 -31.202200 7.926853 0.655542 4.028040 3.314388 16.569219 -41.926517 1.064187 -0.515684 33.143405 -4.135813 -10.600517 -26.032737 3.367000 -0.000000 -50.010000
13.625536 16.582116 1.209138 30.832267 -89.140966 1.862685 -8.447678 -0.285212 4.825120 -1.557214 -19.790179 -45.011800 -0.650277 0.065078 33.577098 4.307806 15.607990 -25.484099 -4.732201 -0.000000 -30.415101 8.032787 0.798381 4.105729 2.800786 16.889767 -44.178751 0.924036 -0.792940 36.313153 -4.222409 -10.686731 -27.283242 3.660800 -0.000000 -48.814000
13.601206 16.469947 1.206323 34.857966 -88.930636 -1.436416 -8.347497 -0.362329 4.836547 -1.583272 -20.128808 -47.137133 -0.610696 0.244387 36.430346 4.432220 15.741751 -26.786574 -5.146100 -0.000000 -29.569200 8.133831 0.946246 4.170055 2.288414 17.117173 -46.455111 0.780900 -1.070094 39.534558 -4.308365 -10.807272 -28.529411 3.963100 -0.000000 -47.533900
13.576739 16.346197 1.203746 38.149003 -88.684239 -3.986935 -8.268575 -0.444861 4.860934 -1.603716 -20.491694 -49.351351 -0.559088 0.439006 39.401351 4.554240 15.880189 -28.102195 -5.568100 -0.000001 -28.709300 8.228612 1.101322 4.227014 1.781651 17.264001 -48.763532 0.632126 -1.343947 42.796937 -4.399196 -10.983739 -29.766624 4.280499 -0.000000 -46.199800
13.551875 16.210720 1.201717 40.609722 -88.411884 -5.685798 -8.209105 -0.530583 4.902452 -1.604238 -20.876736 -51.659477 -0.492033 0.647057 42.469066 4.673747 16.032982 -29.405360 -5.992000 0.000000 -27.886200 8.317705 1.265037 4.282422 1.286382 17.341682 -51.111767 0.475671 -1.613046 46.089489 -4.498395 -11.230962 -30.986687 4.618301 -0.000000 -44.884800
13.526311 16.063546 1.200456 42.300539 -88.120880 -6.586966 -8.166322 -0.618991 4.963598 -1.574548 -21.279147 -54.062569 -0.406888 0.865608 45.612173 4.790424 16.206166 -30.673789 -6.412700 -0.000000 -27.150200 8.402453 1.437245 4.342093 0.805307 17.361555 -53.506879 0.309797 -1.877569 49.403774 -4.607442 -11.556127 -32.181594 4.980501 -0.000000 -43.671300
13.499808 15.905002 1.200064 43.366670 -87.816594 -6.831684 -8.137491 -0.710792 5.044992 -1.509575 -21.691426 -56.556020 -0.302259 1.091453 48.808660 4.903783 16.401630 -31.891379 -6.826200 -0.000000 -26.545901 8.483879 1.616742 4.410852 0.339033 17.334266 -55.952817 0.133255 -2.138552 52.731457 -4.725899 -11.957939 -33.344560 5.368400 -0.000001 -42.643100
13.472213 15.735721 1.200618 43.956593 -87.504085 -6.568726 -8.120529 -0.807115 5.145169 -1.409564 -22.103661 -59.127357 -0.178198 1.321831 52.036288 5.013060 16.616803 -33.049807 -7.229600 0.000000 -26.107600 8.562367 1.801604 4.491100 -0.110047 17.267367 -58.445343 -0.054282 -2.397287 56.060777 -4.851379 -12.425988 -34.468574 5.780300 0.000000 -41.892400
13.443388 15.556583 1.201959 44.261122 -87.187588 -5.990505 -8.112627 -0.908930 5.260916 -1.281475 -22.505610 -61.759321 -0.036217 1.554487 55.273353 5.117716 16.845893 -34.149147 -7.621700 -0.000000 -25.853200 8.638971 1.990229 4.584468 -0.545225 17.168844 -60.977270 -0.253131 -2.655327 59.382019 -4.980598 -12.944060 -35.552662 6.212400 0.000000 -41.469900
13.413441 15.368941 1.203977 44.400939 -86.871453 -5.226311 -8.111817 -1.016754 5.387327 -1.134828 -22.887641 -64.425500 0.121135 1.788162 58.498123 5.217098 17.080870 -35.196474 -8.002800 -0.000001 -25.790300 8.714143 2.180866 4.689229 -0.964055 17.042244 -63.530215 -0.462388 -2.913911 62.679439 -5.109329 -13.489926 -36.596515 6.658300 -0.000001 -41.419401
